<svg version="1.1" id="Layer_1" xmlns="http://www.w3.org/2000/svg" xmlns:xlink="http://www.w3.org/1999/xlink" x="0px" y="0px"
	 width="100%" viewBox="0 0 1024 1024" enable-background="new 0 0 1024 1024" xml:space="preserve">
<path fill="#000000" opacity="1.000000" stroke="none" 
	d="
M506.685730,905.427246 
	C499.872070,903.091614 494.765656,898.701416 489.519653,894.647339 
	C469.912537,879.494995 450.421326,864.192444 430.915436,848.909546 
	C423.882751,843.399475 418.330231,836.571411 414.011200,828.801514 
	C410.927582,823.254211 407.161621,818.272156 403.335144,813.221069 
	C391.997284,798.254822 382.139893,782.540222 374.161346,765.251526 
	C368.625427,753.255737 365.792633,739.705627 357.636566,729.208069 
	C347.429932,716.071350 340.874451,700.411682 329.948425,688.145508 
	C320.527466,677.569031 314.933319,663.968994 302.513123,655.684814 
	C293.255402,649.510071 291.464111,638.079590 288.371368,628.235596 
	C283.977936,614.251465 279.279449,600.551941 272.446075,587.490356 
	C264.756836,572.792908 253.576752,559.865051 248.637039,543.902161 
	C244.969009,532.048767 235.317108,525.077820 228.987000,515.484802 
	C228.806122,515.210693 228.581955,514.908142 228.302963,514.763794 
	C218.183762,509.529358 211.764236,500.128998 203.706833,492.612122 
	C195.944992,485.370972 186.436951,479.937286 180.396454,470.923737 
	C175.591003,463.753113 170.324722,456.897888 166.495682,449.054230 
	C161.555908,438.935242 154.670868,429.735260 152.874527,418.193085 
	C151.364532,408.490845 150.018326,398.723328 147.743225,389.189056 
	C144.095673,373.903320 144.063446,358.130371 140.810257,342.817108 
	C138.733337,333.040710 134.702972,323.764984 133.453186,313.779449 
	C132.014496,302.284882 131.722916,291.148682 136.883453,280.071533 
	C140.930008,271.385590 146.642029,265.338196 155.189667,261.364868 
	C167.305161,255.733063 180.290771,252.510818 192.602585,247.447464 
	C193.498444,247.079056 194.589676,246.915298 195.551300,247.018356 
	C207.090881,248.254913 216.239243,242.586182 224.809830,236.226624 
	C232.345581,230.634964 240.349228,226.684448 249.501572,224.796753 
	C252.816803,224.112991 256.733276,223.254822 253.105789,218.381897 
	C252.749268,217.902969 252.486313,216.987366 252.700470,216.505997 
	C255.714706,209.729980 254.104187,201.401077 259.827698,195.518158 
	C261.563416,193.734055 262.365021,191.396240 260.868256,189.111404 
	C256.066315,181.781113 252.376282,173.687073 245.028564,168.159622 
	C239.112900,163.709442 236.748138,150.163940 240.090424,143.423813 
	C241.530350,140.520050 244.411194,139.260986 246.878967,137.712402 
	C255.542587,132.275818 263.186096,124.388420 274.027771,123.638786 
	C289.169189,122.591850 303.974548,119.156609 319.078339,118.005981 
	C319.908478,117.942741 320.786804,117.987755 321.555969,117.726761 
	C336.622406,112.614380 351.837006,116.447807 366.983551,117.022949 
	C371.331146,117.188042 374.738617,119.983681 377.918396,122.642723 
	C382.050415,126.098076 386.623291,127.326515 391.851013,126.512787 
	C397.226227,125.676117 401.550568,127.526184 405.305969,131.376373 
	C412.824615,139.084732 421.029297,145.520859 432.127319,147.596909 
	C443.537079,149.731232 453.509705,155.266769 463.153015,161.661728 
	C473.260651,168.364624 483.796295,174.430481 494.236572,180.620102 
	C500.170227,184.137924 507.180634,187.264847 513.439026,186.874969 
	C520.760010,186.418900 528.563477,188.028671 535.840881,184.187347 
	C542.416138,180.716644 549.790100,178.802155 556.441711,175.318726 
	C561.132751,172.862045 564.525330,169.207062 567.444580,164.771164 
	C577.588318,149.357635 588.579163,134.724014 607.015991,128.301270 
	C610.770142,126.993454 614.651184,125.466545 618.537476,125.263916 
	C623.794189,124.989830 628.332153,123.581696 632.326843,120.308456 
	C639.539246,114.398666 649.103516,115.614494 657.110352,112.093987 
	C658.078735,111.668190 659.505615,111.791336 660.563660,112.137695 
	C675.470581,117.017807 689.407227,112.434654 703.333740,107.827660 
	C709.477356,105.795303 715.790527,105.838333 722.131042,106.000000 
	C728.298218,106.157242 734.436340,106.301468 740.362122,103.971558 
	C742.680115,103.060165 745.374878,102.478935 747.714417,103.544357 
	C755.713867,107.187325 764.435974,109.112526 771.845520,114.196945 
	C779.147156,119.207314 786.864868,123.391029 796.013672,124.165192 
	C800.609558,124.554085 804.313171,126.848297 807.923157,129.868225 
	C817.904907,138.218323 828.434387,146.769547 841.445618,148.700195 
	C854.470276,150.632797 863.424927,158.994003 873.995544,164.853760 
	C876.278564,166.119339 878.314148,168.225784 879.281067,170.735794 
	C883.114075,180.686035 889.491394,189.493759 892.400024,199.825226 
	C893.572876,203.991043 895.745667,206.543945 900.195374,207.002304 
	C904.568359,207.452744 906.111877,210.921906 907.519409,214.357727 
	C911.730469,224.636673 912.759705,235.672150 914.916138,246.428558 
	C915.927246,251.472076 916.240662,256.660736 916.771057,261.793854 
	C917.322144,267.127350 917.396606,272.365265 915.104492,277.487061 
	C913.610107,280.826202 913.401978,284.580414 912.934387,288.225250 
	C912.091980,294.793579 912.250305,301.572449 908.850464,307.634308 
	C907.843140,309.430420 907.804810,311.575714 908.486816,313.491760 
	C910.269775,318.500519 910.122498,323.667480 909.931274,328.822327 
	C909.700867,335.035980 910.233765,341.109009 912.004028,347.102661 
	C913.594238,352.486847 913.565063,357.991760 912.110596,363.403625 
	C910.907532,367.880310 911.042969,372.167511 912.235352,376.679932 
	C914.074585,383.640259 915.065979,390.675964 912.108582,397.756134 
	C910.402405,401.840973 911.023315,405.860840 913.874390,409.515656 
	C917.048096,413.583954 917.118164,418.260071 917.704590,423.335815 
	C918.708130,432.022369 918.392151,439.234863 912.436340,446.147247 
	C910.098816,448.860260 911.246643,453.198029 912.024719,456.836121 
	C913.862183,465.427368 915.909973,473.489258 921.682739,480.984894 
	C927.620178,488.694336 929.433044,498.958527 929.896240,508.897095 
	C930.660461,525.292419 927.431763,541.396790 925.742981,557.604492 
	C925.173767,563.067932 922.863403,568.189575 920.272583,573.080566 
	C917.437439,578.432800 916.479614,583.926636 918.133362,589.948608 
	C920.285339,597.784912 922.525330,605.528198 923.399902,613.771484 
	C924.836914,627.315369 918.541931,637.297058 910.274841,646.427673 
	C907.434448,649.564819 904.005127,652.596619 903.131714,656.394287 
	C901.159302,664.970703 895.717285,671.350830 890.588074,677.694214 
	C884.319946,685.446106 880.694885,694.361206 877.643066,703.394958 
	C874.286255,713.331665 868.974731,722.406372 866.330078,732.668274 
	C862.172485,748.801086 855.800354,764.219482 847.792480,778.837280 
	C843.428650,786.803040 839.068604,794.876892 831.298828,800.477661 
	C827.427734,803.268250 824.347107,807.161743 820.937805,810.585144 
	C815.885498,815.658325 810.930908,820.755127 804.268921,823.919861 
	C798.748169,826.542542 795.020996,831.494568 790.885803,835.807434 
	C786.223816,840.669678 780.722839,843.190430 773.987915,843.063782 
	C766.257202,842.918457 759.516113,845.304565 754.369324,851.245972 
	C749.202515,857.210632 742.968201,861.334839 735.337830,863.479065 
	C731.069092,864.678650 728.309875,867.646790 726.661499,871.814453 
	C723.639343,879.455688 718.847961,885.658875 711.541199,889.748901 
	C703.798767,894.082764 698.336670,900.229553 696.089111,909.048401 
	C694.902710,913.703857 690.581177,917.072754 690.436707,922.232483 
	C690.394897,923.723816 689.720886,925.354370 690.130249,926.675293 
	C692.343994,933.819580 687.537415,937.080139 682.548279,939.372742 
	C673.312744,943.616638 663.357605,945.832947 653.420166,947.868408 
	C651.690369,948.222717 649.640137,948.149353 647.989868,947.563660 
	C639.785095,944.651917 631.544861,943.721741 623.199402,946.681396 
	C618.876160,948.214600 616.750854,945.374084 614.405273,942.770569 
	C613.492249,941.757019 613.422974,940.705566 614.344482,939.645569 
	C618.239319,935.165283 614.977417,931.285156 612.921204,927.680420 
	C611.256226,924.761597 608.149109,924.620972 604.924072,925.731567 
	C595.782837,928.879456 591.554138,926.202759 589.929871,916.545654 
	C589.571838,914.417114 589.173889,912.252319 588.425232,910.241577 
	C586.866516,906.055298 583.544250,904.550598 579.208618,905.791382 
	C579.048523,905.837219 578.881470,905.874878 578.735168,905.950195 
	C554.956665,918.207397 531.236938,913.721436 507.529144,905.704407 
	C507.371216,905.651001 507.212494,905.599792 506.685730,905.427246 
M766.491943,251.986694 
	C739.331970,252.037369 712.169312,252.310638 685.013916,251.980698 
	C678.307190,251.899231 674.666077,254.141296 671.271973,259.889465 
	C638.339294,315.663940 605.078674,371.244629 571.937073,426.895782 
	C538.281433,483.410095 504.693817,539.965027 470.929718,596.414368 
	C468.588104,600.329285 468.485107,603.438965 470.437225,607.464661 
	C480.535889,628.290283 490.404633,649.227661 500.325562,670.139221 
	C518.739197,708.951965 537.207031,747.739502 555.448486,786.633057 
	C557.897400,791.854492 560.940125,793.871765 566.887085,793.798523 
	C594.542847,793.457825 622.206360,793.520874 649.864075,793.770813 
	C654.639465,793.813904 656.997925,792.135681 658.981873,788.011414 
	C670.820435,763.401062 682.808716,738.861694 694.891968,714.370178 
	C730.405823,642.387329 765.986328,570.437195 801.545898,498.476837 
	C804.880066,491.729645 804.664001,491.334625 797.181763,491.323120 
	C775.187134,491.289337 753.191589,491.367767 731.198608,491.166046 
	C727.149719,491.128906 724.978577,492.390900 723.181091,496.109619 
	C691.298340,562.072327 659.277283,627.968262 627.252502,693.862244 
	C626.499390,695.411743 626.252502,697.489258 623.836609,698.020264 
	C622.021851,697.242798 621.627563,695.319580 620.970093,693.706665 
	C607.780762,661.350708 594.856812,628.883667 581.310913,596.678101 
	C578.147095,589.155945 578.892761,583.225647 583.046021,576.607605 
	C597.209412,554.039001 611.078613,531.285461 625.023743,508.580200 
	C676.273438,425.135773 727.511536,341.684204 778.727173,258.218872 
	C779.721680,256.598145 781.370422,255.146179 780.643250,251.984634 
	C776.360229,251.984634 771.923706,251.984634 766.491943,251.986694 
M485.170044,528.764954 
	C493.600311,514.987854 501.939636,501.153687 510.530090,487.477203 
	C512.476807,484.377960 511.987549,482.146423 510.120819,479.357117 
	C498.912048,462.608856 487.870941,445.748535 476.704437,428.971832 
	C438.967163,372.274994 401.126343,315.646637 363.576141,258.826233 
	C360.299561,253.868210 356.941528,252.082016 351.095398,252.165298 
	C314.119446,252.692154 277.138092,252.841278 240.158585,253.124481 
	C239.028076,253.133148 237.796494,252.886627 236.384842,254.781082 
	C309.233002,361.929718 382.248047,469.323761 455.887054,577.635620 
	C466.009491,560.733337 475.397186,545.058044 485.170044,528.764954 
z"/>
</svg>